# xmcd
#
# Track frame offsets: 
#        150
#        18723
#        36105
#        60126
#        84553
#        110498
#        126823
#        142271
#        174088
#        195054
#        214049
#        240909
#        256572
#        270618
#        291885
#        308498
#        334744
#
# Disc length: 4789 seconds
#
# Revision: 1
# Processed by: cddbd v1.5.2PL0 Copyright (c) Steve Scherf et al.
# Submitted via: ExactAudioCopy v1.3
#
DISCID=dc12b311
DTITLE=Various Artist - Akella Presents - vol.108 - Women's Blues  CD
DTITLE=1
DYEAR=2017
DGENRE=Blues
TTITLE0=Kay Kay And The Rays - Junk Blues
TTITLE1=Eleanor Tsaig - A True Friend (Is Hard to Find)
TTITLE2=Meena - This Song Is For You
TTITLE3=Edlene Hart - Chain of Fools
TTITLE4=Helen Turner - I'd Rather Go Blind
TTITLE5=Angel and the Bad Boys - Crossroads
TTITLE6=Tommie Lee Bradley - Hurricane Sam
TTITLE7=Linda Sutti - With Love
TTITLE8=Bonnie Lee - Sad and Evil Woman
TTITLE9=Shelly Williamson - Helpless
TTITLE10=Cee Cee James - Done Love Wrong
TTITLE11=Jada Amy - Little Boys
TTITLE12=Sass Jordan - What I Need
TTITLE13=Ann Rabson - Gonna Stop You From Giving Me The Blues
TTITLE14=Fiona Boyes - One Rule For You
TTITLE15=Zora Young - Toxic
TTITLE16=Shirley Johnson - As The Years Go Passing By
EXTD=
EXTT0=
EXTT1=
EXTT2=
EXTT3=
EXTT4=
EXTT5=
EXTT6=
EXTT7=
EXTT8=
EXTT9=
EXTT10=
EXTT11=
EXTT12=
EXTT13=
EXTT14=
EXTT15=
EXTT16=
PLAYORDER=
